<svg xmlns="http://www.w3.org/2000/svg" version="1.1" xmlns:xlink="http://www.w3.org/1999/xlink" xmlns:svgjs="http://svgjs.com/svgjs" width="1440" height="400" preserveAspectRatio="none" viewBox="0 0 1440 400"><g mask="url(&quot;#SvgjsMask1000&quot;)" fill="none"><rect width="1440" height="400" x="0" y="0" fill="#1e3266"></rect><path d="M1560 400L0 400 L0 254.07Q35.59 217.66, 72 253.24Q100.38 209.63, 144 238.01Q219.36 193.37, 264 268.73Q317.74 202.47, 384 256.21Q434.01 234.22, 456 284.23Q463.41 219.64, 528 227.05Q595.14 174.19, 648 241.33Q713.71 187.04, 768 252.74Q847.1 211.84, 888 290.93Q912.48 243.41, 960 267.89Q986.29 222.18, 1032 248.47Q1047.54 192.01, 1104 207.55Q1147.44 179, 1176 222.44Q1234.13 208.56, 1248 266.69Q1253.43 200.12, 1320 205.55Q1389.32 154.87, 1440 224.18Q1516.47 180.66, 1560 257.13z" fill="#182f5d"></path><path d="M1488 400L0 400 L0 312.09Q20.96 261.05, 72 282.02Q157.67 247.69, 192 333.35Q238.31 259.66, 312 305.97Q363.4 237.37, 432 288.77Q523.95 260.72, 552 352.67Q588.44 269.12, 672 305.56Q694.14 255.7, 744 277.84Q830.45 244.28, 864 330.73Q915.96 262.69, 984 314.65Q997.79 256.44, 1056 270.23Q1098.8 241.02, 1128 283.82Q1221.84 257.65, 1248 351.49Q1286.43 269.93, 1368 308.36Q1434.48 254.84, 1488 321.32z" fill="#25467d"></path><path d="M1464 400L0 400 L0 415.51Q29.43 324.94, 120 354.36Q146.33 308.69, 192 335.03Q287.85 310.88, 312 406.73Q351.05 325.78, 432 364.83Q462.25 323.08, 504 353.33Q588.95 318.28, 624 403.23Q666.22 373.45, 696 415.67Q706.86 354.52, 768 365.38Q809.42 334.8, 840 376.22Q865.55 329.77, 912 355.33Q997.09 320.41, 1032 405.5Q1083.77 337.27, 1152 389.04Q1165.5 330.54, 1224 344.04Q1294.91 294.96, 1344 365.87Q1424.78 326.65, 1464 407.44z" fill="rgba(31, 36, 46, 1)"></path></g><defs><mask id="SvgjsMask1000"><rect width="1440" height="400" fill="#ffffff"></rect></mask></defs></svg>