<svg xmlns="http://www.w3.org/2000/svg" version="1.1" xmlns:xlink="http://www.w3.org/1999/xlink" xmlns:svgjs="http://svgjs.com/svgjs" width="1440" height="400" preserveAspectRatio="none" viewBox="0 0 1440 400"><g mask="url(&quot;#SvgjsMask1004&quot;)" fill="none"><rect width="1440" height="400" x="0" y="0" fill="#1e3266"></rect><path d="M1536 400L0 400 L0 235.89Q40.87 204.76, 72 245.64Q142.25 195.89, 192 266.14Q198.38 200.52, 264 206.91Q306.6 177.5, 336 220.1Q406.34 170.44, 456 240.77Q472.66 185.43, 528 202.09Q578.19 180.28, 600 230.46Q630.63 189.09, 672 219.73Q725.87 153.59, 792 207.46Q856.29 199.75, 864 264.04Q884.79 212.83, 936 233.62Q987.29 164.91, 1056 216.2Q1138.99 179.19, 1176 262.19Q1229.32 195.5, 1296 248.82Q1335.16 167.98, 1416 207.14Q1505.46 176.6, 1536 266.07z" fill="#182f5d"></path><path d="M1488 400L0 400 L0 307.29Q41.44 276.73, 72 318.16Q102.37 228.53, 192 258.9Q275.97 222.87, 312 306.84Q363.01 237.85, 432 288.86Q484.57 221.43, 552 274Q602.69 252.69, 624 303.38Q690.91 250.29, 744 317.21Q786.94 240.15, 864 283.1Q913.72 212.82, 984 262.54Q1043.67 250.21, 1056 309.88Q1097.94 231.82, 1176 273.76Q1222.99 248.75, 1248 295.74Q1319.92 247.66, 1368 319.58Q1406.63 238.22, 1488 276.85z" fill="#25467d"></path><path d="M1464 400L0 400 L0 354.62Q15.13 297.75, 72 312.89Q142.57 263.46, 192 334.03Q267.89 289.92, 312 365.81Q362.03 295.84, 432 345.87Q446.88 288.75, 504 303.64Q550.8 278.44, 576 325.23Q651.49 280.72, 696 356.2Q745.65 285.86, 816 335.51Q837.98 285.49, 888 307.47Q943.08 290.55, 960 345.62Q988.73 302.35, 1032 331.07Q1082.34 261.4, 1152 311.74Q1206.97 246.71, 1272 301.68Q1319.63 277.31, 1344 324.94Q1421.52 282.46, 1464 359.97z" fill="#356cb1"></path><path d="M1560 400L0 400 L0 381.48Q46.41 307.89, 120 354.31Q181.68 343.99, 192 405.66Q245.3 338.96, 312 392.25Q353.57 313.82, 432 355.39Q517.57 320.96, 552 406.53Q600.08 334.61, 672 382.69Q717.32 308.01, 792 353.33Q836.05 325.38, 864 369.43Q905.42 338.86, 936 380.28Q978.64 350.92, 1008 393.57Q1048.91 314.49, 1128 355.4Q1217.63 325.02, 1248 414.65Q1292.43 339.08, 1368 383.51Q1398.9 342.41, 1440 373.32Q1519.41 332.73, 1560 412.14z" fill="white"></path></g><defs><mask id="SvgjsMask1004"><rect width="1440" height="400" fill="#ffffff"></rect></mask></defs></svg>